STARTFONT 2.1
FONT -Adobe-Utopia-Bold-R-Normal--25-240-75-75-P-140-ISO8859-2
SIZE 24 75 75
FONTBOUNDINGBOX 35 26 -4 -5
STARTPROPERTIES 29
FOUNDRY "Adobe"
FAMILY_NAME "Utopia"
WEIGHT_NAME "Bold"
SLANT "R"
SETWIDTH_NAME "Normal"
ADD_STYLE_NAME ""
PIXEL_SIZE 25
POINT_SIZE 240
RESOLUTION_X 75
RESOLUTION_Y 75
SPACING "P"
AVERAGE_WIDTH 140
CHARSET_REGISTRY "ISO8859"
CHARSET_ENCODING "2"
CAP_HEIGHT 17
X_HEIGHT 12
RELATIVE_SETWIDTH 50
RELATIVE_WEIGHT 70
WEIGHT 218
FACE_NAME "Utopia Bold"
COPYRIGHT "Copyright (c) 1989, 1991 Adobe Systems Incorporated.  All rights reserved., Copyright 1996 Cub Soft"
NOTICE "Utopia is a registered trademark of Adobe Systems Incorporated."
DESTINATION 0
FONT_ASCENT 21
FONT_DESCENT 5
DEFAULT_CHAR 32
_ADOBE_PSFONT "Utopia-Bold"
_ADOBE_XFONT "-Adobe-Utopia-Bold-R-Normal--25-240-75-75-P-140-ISO8859-2"
_DEC_DEVICE_FONTNAMES "PS=Utopia-Bold"
ENDPROPERTIES
CHARS 191
STARTCHAR space
ENCODING 32
SWIDTH 210 0
DWIDTH 5 0
BBX 0 0 0 0
BITMAP
ENDCHAR
STARTCHAR exclam
ENCODING 33
SWIDTH 278 0
DWIDTH 7 0
BBX 6 17 0 0
BITMAP
78
fc
fc
fc
78
78
78
78
30
30
30
00
30
78
78
78
30
ENDCHAR
STARTCHAR quotedbl
ENCODING 34
SWIDTH 473 0
DWIDTH 12 0
BBX 7 8 2 9
BITMAP
ee
ee
ee
ee
ee
44
44
44
ENDCHAR
STARTCHAR numbersign
ENCODING 35
SWIDTH 560 0
DWIDTH 14 0
BBX 14 15 0 2
BITMAP
0630
0630
0630
3ffc
3ffc
0c60
0c60
18c0
18c0
18c0
fff0
fff0
3180
3180
3180
ENDCHAR
STARTCHAR dollar
ENCODING 36
SWIDTH 560 0
DWIDTH 14 0
BBX 13 21 0 -2
BITMAP
0200
0200
0fe0
1af8
3278
7230
7a00
7e00
7f00
7fc0
3ff0
1ff8
07f8
03f8
0278
6238
f230
fa60
3fc0
0200
0200
ENDCHAR
STARTCHAR percent
ENCODING 37
SWIDTH 887 0
DWIDTH 22 0
BBX 21 17 0 0
BITMAP
3e0100
77ff00
e38200
e38400
e38c00
e38800
e39000
773000
3e23e0
004770
00ce38
008e38
010e38
030e38
020e38
040770
0c03e0
ENDCHAR
STARTCHAR ampersand
ENCODING 38
SWIDTH 748 0
DWIDTH 19 0
BBX 18 17 0 0
BITMAP
03c000
0f7000
1e3800
1e3800
1e3800
1f3180
0fe3c0
0fc7c0
3fe3c0
7df380
f8f380
f87b00
f87e00
f83e00
7c1f00
3e3f80
0fc7c0
ENDCHAR
STARTCHAR apostrophe
ENCODING 39
SWIDTH 252 0
DWIDTH 6 0
BBX 4 8 1 9
BITMAP
60
f0
f0
f0
60
60
40
80
ENDCHAR
STARTCHAR parenleft
ENCODING 40
SWIDTH 365 0
DWIDTH 9 0
BBX 7 20 1 -3
BITMAP
06
1c
38
70
70
70
e0
e0
e0
e0
e0
e0
e0
e0
70
70
70
38
1c
06
ENDCHAR
STARTCHAR parenright
ENCODING 41
SWIDTH 365 0
DWIDTH 9 0
BBX 7 20 0 -3
BITMAP
c0
70
38
1c
1c
1c
0e
0e
0e
0e
0e
0e
0e
0e
1c
1c
1c
38
70
c0
ENDCHAR
STARTCHAR asterisk
ENCODING 42
SWIDTH 442 0
DWIDTH 11 0
BBX 8 9 1 8
BITMAP
18
18
db
ff
3c
ff
db
18
18
ENDCHAR
STARTCHAR plus
ENCODING 43
SWIDTH 600 0
DWIDTH 15 0
BBX 12 12 1 0
BITMAP
0600
0600
0600
0600
0600
fff0
fff0
0600
0600
0600
0600
0600
ENDCHAR
STARTCHAR comma
ENCODING 44
SWIDTH 280 0
DWIDTH 7 0
BBX 4 8 1 -3
BITMAP
60
f0
f0
f0
60
60
40
80
ENDCHAR
STARTCHAR minus
ENCODING 45
SWIDTH 600 0
DWIDTH 15 0
BBX 12 2 1 5
BITMAP
fff0
fff0
ENDCHAR
STARTCHAR period
ENCODING 46
SWIDTH 280 0
DWIDTH 7 0
BBX 4 5 1 0
BITMAP
60
f0
f0
f0
60
ENDCHAR
STARTCHAR slash
ENCODING 47
SWIDTH 378 0
DWIDTH 9 0
BBX 6 17 1 0
BITMAP
0c
0c
0c
18
18
18
18
30
30
30
60
60
60
60
c0
c0
c0
ENDCHAR
STARTCHAR zero
ENCODING 48
SWIDTH 560 0
DWIDTH 14 0
BBX 13 17 0 0
BITMAP
0f80
3de0
38e0
78f0
78f0
f8f8
f8f8
f8f8
f8f8
f8f8
f8f8
f8f8
78f0
78f0
38e0
3de0
0f80
ENDCHAR
STARTCHAR one
ENCODING 49
SWIDTH 560 0
DWIDTH 14 0
BBX 9 17 2 0
BITMAP
0e00
3e00
fe00
3e00
3e00
3e00
3e00
3e00
3e00
3e00
3e00
3e00
3e00
3e00
3e00
3e00
ff80
ENDCHAR
STARTCHAR two
ENCODING 50
SWIDTH 560 0
DWIDTH 14 0
BBX 13 17 0 0
BITMAP
1f80
7be0
f1f0
f1f0
61f0
01f0
01f0
03e0
03e0
0780
0e00
1800
3008
7018
fff0
fff0
fff0
ENDCHAR
STARTCHAR three
ENCODING 51
SWIDTH 560 0
DWIDTH 14 0
BBX 13 17 0 0
BITMAP
1fc0
79f0
f0f8
f0f8
60f8
00f8
00f0
31e0
3fe0
01f0
00f8
00f8
60f8
f0f8
f0f8
79f0
1fc0
ENDCHAR
STARTCHAR four
ENCODING 52
SWIDTH 560 0
DWIDTH 14 0
BBX 13 17 0 0
BITMAP
0e00
0f00
1f00
1e20
1c60
3ce0
39e0
33e0
73e0
63e0
e3e0
fff8
fff0
03e0
03e0
03e0
0ff8
ENDCHAR
STARTCHAR five
ENCODING 53
SWIDTH 560 0
DWIDTH 14 0
BBX 13 17 0 0
BITMAP
7ff0
7ff0
7fe0
6000
6000
6000
6fc0
71f0
60f8
00f8
00f8
00f8
60f8
f0f8
f0f0
79f0
1fc0
ENDCHAR
STARTCHAR six
ENCODING 54
SWIDTH 560 0
DWIDTH 14 0
BBX 13 17 0 0
BITMAP
0fc0
3cf0
3878
7878
7830
f800
f800
fbc0
fdf0
f8f0
f8f8
f8f8
78f8
78f8
38f0
3df0
0fc0
ENDCHAR
STARTCHAR seven
ENCODING 55
SWIDTH 560 0
DWIDTH 14 0
BBX 13 17 0 0
BITMAP
7ff8
7ff8
fff0
c070
8060
00c0
01c0
0180
0380
0780
0700
0f00
0f00
1f00
1f00
1f00
0e00
ENDCHAR
STARTCHAR eight
ENCODING 56
SWIDTH 560 0
DWIDTH 14 0
BBX 13 17 0 0
BITMAP
1fc0
7df0
78f0
f8f8
f8f8
f8f8
78f0
7df0
1fc0
7df0
78f0
f8f8
f8f8
f8f8
78f0
7df0
1fc0
ENDCHAR
STARTCHAR nine
ENCODING 57
SWIDTH 560 0
DWIDTH 14 0
BBX 13 17 0 0
BITMAP
1f80
7de0
78e0
f8f0
f8f0
f8f8
f8f8
78f8
7df8
1ef8
00f8
00f8
60f0
f0f0
f0e0
79e0
1f80
ENDCHAR
STARTCHAR colon
ENCODING 58
SWIDTH 280 0
DWIDTH 7 0
BBX 4 12 1 0
BITMAP
60
f0
f0
f0
60
00
00
60
f0
f0
f0
60
ENDCHAR
STARTCHAR semicolon
ENCODING 59
SWIDTH 280 0
DWIDTH 7 0
BBX 4 15 1 -3
BITMAP
60
f0
f0
f0
60
00
00
60
f0
f0
f0
60
60
40
80
ENDCHAR
STARTCHAR less
ENCODING 60
SWIDTH 600 0
DWIDTH 15 0
BBX 12 12 1 0
BITMAP
0030
00f0
03c0
0f00
3c00
f000
f000
3c00
0f00
03c0
00f0
0030
ENDCHAR
STARTCHAR equal
ENCODING 61
SWIDTH 600 0
DWIDTH 15 0
BBX 12 7 1 3
BITMAP
fff0
fff0
0000
0000
0000
fff0
fff0
ENDCHAR
STARTCHAR greater
ENCODING 62
SWIDTH 600 0
DWIDTH 15 0
BBX 12 12 1 0
BITMAP
c000
f000
3c00
0f00
03c0
00f0
00f0
03c0
0f00
3c00
f000
c000
ENDCHAR
STARTCHAR question
ENCODING 63
SWIDTH 456 0
DWIDTH 12 0
BBX 10 17 0 0
BITMAP
1e00
7780
f3c0
f3c0
63c0
0780
0f00
1c00
3800
3f00
1e00
0000
0c00
1e00
1e00
1e00
0c00
ENDCHAR
STARTCHAR at
ENCODING 64
SWIDTH 833 0
DWIDTH 21 0
BBX 20 17 0 0
BITMAP
01fe00
070380
1c00c0
383f60
70e760
71c730
e38e30
e38e30
e70e30
e71c60
e73c60
e75cc0
738f00
700000
380000
1e0300
03fc00
ENDCHAR
STARTCHAR A
ENCODING 65
SWIDTH 644 0
DWIDTH 16 0
BBX 18 17 -1 0
BITMAP
01e000
01e000
03f000
03f000
03f000
06f800
06f800
06f800
0c7c00
0c7c00
0ffc00
183e00
183e00
183e00
301f00
301f00
fc7fc0
ENDCHAR
STARTCHAR B
ENCODING 66
SWIDTH 683 0
DWIDTH 17 0
BBX 16 17 0 0
BITMAP
fff0
3e7c
3e3e
3e3e
3e3e
3e3e
3e7c
3ff0
3e7c
3e3e
3e1f
3e1f
3e1f
3e1f
3e1f
3f3e
fff8
ENDCHAR
STARTCHAR C
ENCODING 67
SWIDTH 689 0
DWIDTH 17 0
BBX 16 17 0 0
BITMAP
07fc
1e0f
3c07
7c03
7c01
f801
f800
f800
f800
f800
f800
f801
7c01
7c03
3e07
1f0f
07fc
ENDCHAR
STARTCHAR D
ENCODING 68
SWIDTH 777 0
DWIDTH 19 0
BBX 18 17 0 0
BITMAP
fff800
3e1e00
3e0f00
3e0f80
3e0f80
3e07c0
3e07c0
3e07c0
3e07c0
3e07c0
3e07c0
3e07c0
3e0f80
3e0f80
3e0f00
3f1e00
fff800
ENDCHAR
STARTCHAR E
ENCODING 69
SWIDTH 629 0
DWIDTH 16 0
BBX 15 17 0 0
BITMAP
fffc
3e1c
3e0c
3e04
3e00
3e10
3e30
3ff0
3e30
3e10
3e00
3e00
3e02
3e02
3e06
3f0e
fffe
ENDCHAR
STARTCHAR F
ENCODING 70
SWIDTH 593 0
DWIDTH 15 0
BBX 14 17 0 0
BITMAP
fffc
3e1c
3e0c
3e04
3e00
3e00
3e10
3e30
3ff0
3e30
3e10
3e00
3e00
3e00
3e00
3e00
ff80
ENDCHAR
STARTCHAR G
ENCODING 71
SWIDTH 726 0
DWIDTH 18 0
BBX 17 17 0 0
BITMAP
07fc00
1e0f00
3c0700
7c0300
7c0100
f80100
f80000
f80000
f80000
f80000
f87f80
f81f00
7c1f00
7c1f00
3e1f00
1f1f00
07f800
ENDCHAR
STARTCHAR H
ENCODING 72
SWIDTH 807 0
DWIDTH 20 0
BBX 19 17 0 0
BITMAP
ffbfe0
3e0f80
3e0f80
3e0f80
3e0f80
3e0f80
3e0f80
3e0f80
3fff80
3e0f80
3e0f80
3e0f80
3e0f80
3e0f80
3e0f80
3e0f80
ffbfe0
ENDCHAR
STARTCHAR I
ENCODING 73
SWIDTH 384 0
DWIDTH 10 0
BBX 9 17 0 0
BITMAP
ff80
3e00
3e00
3e00
3e00
3e00
3e00
3e00
3e00
3e00
3e00
3e00
3e00
3e00
3e00
3e00
ff80
ENDCHAR
STARTCHAR J
ENCODING 74
SWIDTH 386 0
DWIDTH 10 0
BBX 10 20 -1 -3
BITMAP
7fc0
1f00
1f00
1f00
1f00
1f00
1f00
1f00
1f00
1f00
1f00
1f00
1f00
1f00
1f00
1f00
1e00
1e00
3c00
f000
ENDCHAR
STARTCHAR K
ENCODING 75
SWIDTH 707 0
DWIDTH 18 0
BBX 19 17 0 0
BITMAP
ff8fc0
3e0700
3e0600
3e0c00
3e1800
3e3000
3e7000
3ef000
3ff800
3efc00
3e7c00
3e3e00
3e3f00
3e1f00
3e0f80
3e0fc0
ff87e0
ENDCHAR
STARTCHAR L
ENCODING 76
SWIDTH 585 0
DWIDTH 15 0
BBX 15 17 0 0
BITMAP
ff80
3e00
3e00
3e00
3e00
3e00
3e00
3e00
3e00
3e00
3e00
3e00
3e02
3e02
3e06
3f0e
fffe
ENDCHAR
STARTCHAR M
ENCODING 77
SWIDTH 918 0
DWIDTH 23 0
BBX 23 17 0 0
BITMAP
ff01fe
3f01f8
3f81f8
3f83f8
3782f8
37c2f8
37c6f8
33c4f8
33e4f8
33ecf8
31e8f8
31f8f8
31f8f8
30f0f8
30f0f8
30f0f8
fc63fe
ENDCHAR
STARTCHAR N
ENCODING 78
SWIDTH 739 0
DWIDTH 19 0
BBX 18 17 0 0
BITMAP
fe0fc0
3f0300
3f8300
3f8300
3fc300
37e300
37e300
33f300
31fb00
31fb00
30ff00
307f00
307f00
303f00
301f00
301f00
fc0f00
ENDCHAR
STARTCHAR O
ENCODING 79
SWIDTH 768 0
DWIDTH 19 0
BBX 18 17 0 0
BITMAP
07f800
1e1e00
3c0f00
7c0f80
7c0f80
f807c0
f807c0
f807c0
f807c0
f807c0
f807c0
f807c0
7c0f80
7c0f80
3c0f00
1e1e00
07f800
ENDCHAR
STARTCHAR P
ENCODING 80
SWIDTH 650 0
DWIDTH 16 0
BBX 15 17 0 0
BITMAP
fff0
3e7c
3e3e
3e3e
3e3e
3e3e
3e3e
3e3c
3e78
3fe0
3e00
3e00
3e00
3e00
3e00
3e00
ff80
ENDCHAR
STARTCHAR Q
ENCODING 81
SWIDTH 768 0
DWIDTH 19 0
BBX 18 22 0 -5
BITMAP
07f800
1e1e00
3c0f00
7c0f80
7c0f80
f807c0
f807c0
f807c0
f807c0
f807c0
f807c0
f807c0
7c0f80
7c0f80
3c0f00
1e1e00
07f800
00f800
007c00
007e00
003f00
000fc0
ENDCHAR
STARTCHAR R
ENCODING 82
SWIDTH 684 0
DWIDTH 17 0
BBX 18 17 -1 0
BITMAP
fff800
3e3e00
3e1f00
3e1f00
3e1f00
3e1f00
3e1e00
3e3c00
3ff000
3ef800
3e7c00
3e7e00
3e3e00
3e3f00
3e3f00
3f1f80
ff8fc0
ENDCHAR
STARTCHAR S
ENCODING 83
SWIDTH 561 0
DWIDTH 14 0
BBX 13 17 0 0
BITMAP
1fe0
7c70
7830
f810
f800
fc00
ff00
7f80
3fe0
0ff0
03f8
81f8
80f8
c0f8
e0f0
f9f0
3fc0
ENDCHAR
STARTCHAR T
ENCODING 84
SWIDTH 624 0
DWIDTH 16 0
BBX 15 17 0 0
BITMAP
fffe
e7ce
c7c6
87c2
07c0
07c0
07c0
07c0
07c0
07c0
07c0
07c0
07c0
07c0
07c0
07c0
1ff0
ENDCHAR
STARTCHAR U
ENCODING 85
SWIDTH 786 0
DWIDTH 20 0
BBX 19 17 0 0
BITMAP
ffbfe0
3e0f80
3e0f80
3e0f80
3e0f80
3e0f80
3e0f80
3e0f80
3e0f80
3e0f80
3e0f80
3e0f80
3e0f80
3e0f80
1e0f00
0f1e00
03f800
ENDCHAR
STARTCHAR V
ENCODING 86
SWIDTH 645 0
DWIDTH 17 0
BBX 18 17 -1 0
BITMAP
ff8fc0
3e0300
3e0300
1f0600
1f0600
1f0600
0f8c00
0f8c00
0f8c00
07d800
07d800
07d800
03f000
03f000
03f000
01e000
01e000
ENDCHAR
STARTCHAR W
ENCODING 87
SWIDTH 933 0
DWIDTH 23 0
BBX 25 17 -1 0
BITMAP
ff8f1f80
3e0f0600
3e0f0400
3e0f0400
3e1f8c00
1f1f8800
1f1f8800
1f178800
1f379800
0fa7d000
0fa7d000
0fa7d000
0fe7f000
07c3e000
07c3e000
07c3e000
07c3e000
ENDCHAR
STARTCHAR X
ENCODING 88
SWIDTH 634 0
DWIDTH 16 0
BBX 17 17 0 0
BITMAP
ff9f80
3e0e00
3f0c00
1f0800
0f9000
0f9000
07e000
07e000
03e000
03f000
03f000
04f800
04f800
087c00
187e00
383e00
fcff80
ENDCHAR
STARTCHAR Y
ENCODING 89
SWIDTH 617 0
DWIDTH 15 0
BBX 17 17 -1 0
BITMAP
ff9f80
3e0600
3e0600
1f0c00
1f0c00
0f9800
0f9800
07f000
07f000
03e000
03e000
03e000
03e000
03e000
03e000
03e000
0ff800
ENDCHAR
STARTCHAR Z
ENCODING 90
SWIDTH 614 0
DWIDTH 15 0
BBX 15 17 0 0
BITMAP
7ffe
707e
607c
40f8
41f8
01f0
03e0
07e0
07c0
0f80
1f80
1f00
3e02
7e02
7c06
fc0e
fffe
ENDCHAR
STARTCHAR bracketleft
ENCODING 91
SWIDTH 335 0
DWIDTH 8 0
BBX 5 20 2 -3
BITMAP
f8
e0
e0
e0
e0
e0
e0
e0
e0
e0
e0
e0
e0
e0
e0
e0
e0
e0
e0
f8
ENDCHAR
STARTCHAR backslash
ENCODING 92
SWIDTH 379 0
DWIDTH 9 0
BBX 6 17 1 0
BITMAP
c0
c0
c0
60
60
60
60
30
30
30
18
18
18
18
0c
0c
0c
ENDCHAR
STARTCHAR bracketright
ENCODING 93
SWIDTH 335 0
DWIDTH 8 0
BBX 5 20 1 -3
BITMAP
f8
38
38
38
38
38
38
38
38
38
38
38
38
38
38
38
38
38
38
f8
ENDCHAR
STARTCHAR asciicircum
ENCODING 94
SWIDTH 600 0
DWIDTH 15 0
BBX 12 12 1 5
BITMAP
0600
0600
0f00
0f00
1980
1980
30c0
30c0
6060
6060
c030
c030
ENDCHAR
STARTCHAR underscore
ENCODING 95
SWIDTH 500 0
DWIDTH 12 0
BBX 12 1 0 -3
BITMAP
fff0
ENDCHAR
STARTCHAR grave
ENCODING 96
SWIDTH 430 0
DWIDTH 11 0
BBX 6 5 2 14
BITMAP
40
e0
f0
38
0c
ENDCHAR
STARTCHAR a
ENCODING 97
SWIDTH 544 0
DWIDTH 14 0
BBX 14 13 0 0
BITMAP
3fc0
fbe0
f1f0
61f0
03f0
07f0
19f0
71f0
f1f0
f1f0
f9f0
fffc
7cf0
ENDCHAR
STARTCHAR b
ENCODING 98
SWIDTH 605 0
DWIDTH 15 0
BBX 16 19 -2 0
BITMAP
0e00
fe00
3e00
3e00
3e00
3e00
3ef8
3fbe
3f3e
3e1f
3e1f
3e1f
3e1f
3e1f
3e1f
3e1f
3e3e
3f3e
3bf8
ENDCHAR
STARTCHAR c
ENCODING 99
SWIDTH 494 0
DWIDTH 13 0
BBX 12 13 0 0
BITMAP
1fc0
7cf0
7cf0
f860
f800
f800
f800
f800
f800
f800
7c10
7c70
1fc0
ENDCHAR
STARTCHAR d
ENCODING 100
SWIDTH 605 0
DWIDTH 15 0
BBX 15 19 0 0
BITMAP
001c
01fc
007c
007c
007c
007c
1ffc
7cfc
7c7c
f87c
f87c
f87c
f87c
f87c
f87c
f87c
7c7c
7cfc
1f3e
ENDCHAR
STARTCHAR e
ENCODING 101
SWIDTH 519 0
DWIDTH 13 0
BBX 12 13 0 0
BITMAP
1fc0
7de0
7cf0
f8f0
fff0
f800
f800
f800
f800
f800
7c10
7c70
1fc0
ENDCHAR
STARTCHAR f
ENCODING 102
SWIDTH 342 0
DWIDTH 9 0
BBX 11 19 -1 0
BITMAP
0fc0
1de0
3ce0
3c00
3e00
3e00
ffc0
3e00
3e00
3e00
3e00
3e00
3e00
3e00
3e00
3e00
3e00
3e00
ff80
ENDCHAR
STARTCHAR g
ENCODING 103
SWIDTH 533 0
DWIDTH 14 0
BBX 14 19 0 -5
BITMAP
001c
1ffc
7df0
f8f8
f8f8
f8f8
f8f8
7df0
1fc0
0c00
1f00
3fe0
3ff8
1ffc
71fc
f03c
f03c
7878
1fe0
ENDCHAR
STARTCHAR h
ENCODING 104
SWIDTH 631 0
DWIDTH 16 0
BBX 16 19 -1 0
BITMAP
0e00
fe00
3e00
3e00
3e00
3e00
3e78
3efc
3f3e
3e3e
3e3e
3e3e
3e3e
3e3e
3e3e
3e3e
3e3e
3e3e
7f3f
ENDCHAR
STARTCHAR i
ENCODING 105
SWIDTH 316 0
DWIDTH 8 0
BBX 7 18 0 0
BITMAP
38
7c
7c
38
00
1c
fc
7c
7c
7c
7c
7c
7c
7c
7c
7c
7c
fe
ENDCHAR
STARTCHAR j
ENCODING 106
SWIDTH 316 0
DWIDTH 8 0
BBX 8 23 -2 -5
BITMAP
06
0f
0f
06
00
0f
3f
1f
1f
1f
1f
1f
1f
1f
1f
1f
1f
1f
1f
1f
1e
3e
f8
ENDCHAR
STARTCHAR k
ENCODING 107
SWIDTH 582 0
DWIDTH 15 0
BBX 16 19 -1 0
BITMAP
1e00
fe00
3e00
3e00
3e00
3e00
3e1e
3e3c
3e38
3e70
3ee0
3fc0
3fe0
3ef0
3ef8
3e78
3e7c
3e3e
7f1f
ENDCHAR
STARTCHAR l
ENCODING 108
SWIDTH 309 0
DWIDTH 8 0
BBX 8 19 -1 0
BITMAP
0e
fe
3e
3e
3e
3e
3e
3e
3e
3e
3e
3e
3e
3e
3e
3e
3e
3e
7f
ENDCHAR
STARTCHAR m
ENCODING 109
SWIDTH 948 0
DWIDTH 24 0
BBX 23 13 0 0
BITMAP
3cf0f0
fdf9f8
7e7e7c
7c7c7c
7c7c7c
7c7c7c
7c7c7c
7c7c7c
7c7c7c
7c7c7c
7c7c7c
7c7c7c
fe7e7e
ENDCHAR
STARTCHAR n
ENCODING 110
SWIDTH 638 0
DWIDTH 16 0
BBX 15 13 0 0
BITMAP
1cf0
fdf8
7e7c
7c7c
7c7c
7c7c
7c7c
7c7c
7c7c
7c7c
7c7c
7c7c
fe7e
ENDCHAR
STARTCHAR o
ENCODING 111
SWIDTH 585 0
DWIDTH 15 0
BBX 14 13 0 0
BITMAP
1fe0
7cf8
7cf8
f87c
f87c
f87c
f87c
f87c
f87c
f87c
7cf8
7cf8
1fe0
ENDCHAR
STARTCHAR p
ENCODING 112
SWIDTH 615 0
DWIDTH 15 0
BBX 15 18 -1 -5
BITMAP
1df0
fe7c
7c7c
7c3e
7c3e
7c3e
7c3e
7c3e
7c3e
7c3e
7c7c
7e7c
7ff0
7c00
7c00
7c00
7c00
fe00
ENDCHAR
STARTCHAR q
ENCODING 113
SWIDTH 597 0
DWIDTH 15 0
BBX 15 19 0 -5
BITMAP
000c
1f9c
7cfc
7c7c
f87c
f87c
f87c
f87c
f87c
f87c
f87c
7c7c
7cfc
1f7c
007c
007c
007c
007c
00fe
ENDCHAR
STARTCHAR r
ENCODING 114
SWIDTH 440 0
DWIDTH 11 0
BBX 12 13 0 0
BITMAP
1ce0
fdf0
7ff0
7ce0
7c00
7c00
7c00
7c00
7c00
7c00
7c00
7c00
fe00
ENDCHAR
STARTCHAR s
ENCODING 115
SWIDTH 446 0
DWIDTH 11 0
BBX 10 13 0 0
BITMAP
1f80
71c0
f0c0
f840
fe00
7f00
3f80
1fc0
0fc0
87c0
c3c0
e380
7e00
ENDCHAR
STARTCHAR t
ENCODING 116
SWIDTH 370 0
DWIDTH 9 0
BBX 9 16 0 0
BITMAP
0c00
1c00
3c00
ff80
7c00
7c00
7c00
7c00
7c00
7c00
7c00
7c00
7c00
7c80
3f80
1f00
ENDCHAR
STARTCHAR u
ENCODING 117
SWIDTH 629 0
DWIDTH 16 0
BBX 15 13 0 0
BITMAP
1c1c
fcfc
7c7c
7c7c
7c7c
7c7c
7c7c
7c7c
7c7c
7c7c
7cfc
3f7c
1e7e
ENDCHAR
STARTCHAR v
ENCODING 118
SWIDTH 520 0
DWIDTH 13 0
BBX 14 13 -1 0
BITMAP
fe3c
7c18
7c10
7c10
3e30
3e20
3e20
1f60
1f40
1f40
0fc0
0f80
0f80
ENDCHAR
STARTCHAR w
ENCODING 119
SWIDTH 774 0
DWIDTH 19 0
BBX 22 13 -1 0
BITMAP
fe3c3c
7c3c18
7c3c10
7c3e30
3e3e20
3e3e20
3e7f60
1f5f40
1f5f40
1fdfc0
0f8f80
0f8f80
0f8f80
ENDCHAR
STARTCHAR x
ENCODING 120
SWIDTH 522 0
DWIDTH 13 0
BBX 13 13 0 0
BITMAP
fe78
7c30
7c60
3e40
1fc0
1f80
0f80
0fc0
1fc0
13e0
31f0
61f0
f3f8
ENDCHAR
STARTCHAR y
ENCODING 121
SWIDTH 524 0
DWIDTH 13 0
BBX 14 18 -1 -5
BITMAP
fe3c
7c18
7c10
3e30
3e20
3e20
1f60
1f40
1f40
0fc0
0f80
0f80
0780
0700
6700
f600
f400
7800
ENDCHAR
STARTCHAR z
ENCODING 122
SWIDTH 483 0
DWIDTH 12 0
BBX 11 13 0 0
BITMAP
ffe0
c3e0
87c0
07c0
0f80
1f00
1f00
3e00
7c00
7c00
f820
f860
ffe0
ENDCHAR
STARTCHAR braceleft
ENCODING 123
SWIDTH 365 0
DWIDTH 9 0
BBX 7 20 1 -3
BITMAP
0e
18
38
38
38
38
38
38
30
e0
30
38
38
38
38
38
38
38
18
0e
ENDCHAR
STARTCHAR bar
ENCODING 124
SWIDTH 284 0
DWIDTH 7 0
BBX 2 17 2 0
BITMAP
c0
c0
c0
c0
c0
c0
c0
c0
c0
c0
c0
c0
c0
c0
c0
c0
c0
ENDCHAR
STARTCHAR braceright
ENCODING 125
SWIDTH 365 0
DWIDTH 9 0
BBX 7 20 1 -3
BITMAP
e0
30
38
38
38
38
38
38
18
0e
18
38
38
38
38
38
38
38
30
e0
ENDCHAR
STARTCHAR asciitilde
ENCODING 126
SWIDTH 600 0
DWIDTH 15 0
BBX 14 4 0 5
BITMAP
1e0c
3f98
67f0
c1e0
ENDCHAR
STARTCHAR nobreakspace
ENCODING 160
SWIDTH 210 0
DWIDTH 5 0
BBX 0 0 0 0
BITMAP
ENDCHAR
STARTCHAR Aogonek
ENCODING 161
SWIDTH 644 0
DWIDTH 16 0
BBX 18 22 -1 -5
BITMAP
01e000
01e000
03f000
03f000
03f000
06f800
06f800
06f800
0c7c00
0c7c00
0ffc00
183e00
183e00
183e00
301f00
301f00
fc7fc0
00e000
01c000
038000
039000
01e000
ENDCHAR
STARTCHAR breve
ENCODING 162
SWIDTH 430 0
DWIDTH 10 0
BBX 8 4 1 14
BITMAP
81
c3
7e
3c
ENDCHAR
STARTCHAR Lstroke
ENCODING 163
SWIDTH 591 0
DWIDTH 15 0
BBX 15 17 0 0
BITMAP
ff80
3e00
3e00
3e00
3e40
3ec0
3f80
3f00
3e00
3e00
7e00
fe00
be02
3e02
3e06
3f0e
fffe
ENDCHAR
STARTCHAR currency
ENCODING 164
SWIDTH 560 0
DWIDTH 14 0
BBX 12 12 1 3
BITMAP
cf30
fff0
70e0
6060
c030
c030
c030
c030
6060
70e0
fff0
cf30
ENDCHAR
STARTCHAR Lcaron
ENCODING 165
SWIDTH 585 0
DWIDTH 15 0
BBX 15 19 0 0
BITMAP
0018
003c
ffbc
3e3c
3e18
3e18
3e10
3e20
3e00
3e00
3e00
3e00
3e00
3e00
3e02
3e02
3e06
3f0e
fffe
ENDCHAR
STARTCHAR Sacute
ENCODING 166
SWIDTH 561 0
DWIDTH 14 0
BBX 13 23 0 0
BITMAP
0020
0070
00f0
01c0
0300
0000
1fe0
7c70
7830
f810
f800
fc00
ff00
7f80
3fe0
0ff0
03f8
81f8
80f8
c0f8
e0f0
f9f0
3fc0
ENDCHAR
STARTCHAR section
ENCODING 167
SWIDTH 566 0
DWIDTH 14 0
BBX 12 20 0 -3
BITMAP
0fc0
19e0
30e0
3840
3c00
3f00
6780
c3e0
c0f0
e070
f030
7c10
1e10
0fb0
03e0
01e0
10e0
3860
3cc0
1f80
ENDCHAR
STARTCHAR diaeresis
ENCODING 168
SWIDTH 430 0
DWIDTH 11 0
BBX 9 4 1 14
BITMAP
6300
f780
f780
6300
ENDCHAR
STARTCHAR Scaron
ENCODING 169
SWIDTH 561 0
DWIDTH 14 0
BBX 13 23 0 0
BITMAP
2020
18c0
0f80
0700
0200
0000
1fe0
7c70
7830
f810
f800
fc00
ff00
7f80
3fe0
0ff0
03f8
81f8
80f8
c0f8
e0f0
f9f0
3fc0
ENDCHAR
STARTCHAR Scedilla
ENCODING 170
SWIDTH 561 0
DWIDTH 14 0
BBX 13 22 0 -5
BITMAP
1fe0
7c70
7830
f810
f800
fc00
ff00
7f80
3fe0
0ff0
03f8
81f8
80f8
c0f8
e0f0
f9f0
3fc0
0200
0700
0380
0380
0f00
ENDCHAR
STARTCHAR Tcaron
ENCODING 171
SWIDTH 624 0
DWIDTH 16 0
BBX 15 23 0 0
BITMAP
1010
0c60
07c0
0380
0100
0000
fffe
e7ce
c7c6
87c2
07c0
07c0
07c0
07c0
07c0
07c0
07c0
07c0
07c0
07c0
07c0
07c0
1ff0
ENDCHAR
STARTCHAR Zacute
ENCODING 172
SWIDTH 614 0
DWIDTH 15 0
BBX 15 23 0 0
BITMAP
0010
0038
0078
00e0
0180
0000
7ffe
707e
607c
40f8
41f8
01f0
03e0
07e0
07c0
0f80
1f80
1f00
3e02
7e02
7c06
fc0e
fffe
ENDCHAR
STARTCHAR hyphen
ENCODING 173
SWIDTH 392 0
DWIDTH 10 0
BBX 7 2 1 5
BITMAP
fe
fe
ENDCHAR
STARTCHAR Zcaron
ENCODING 174
SWIDTH 614 0
DWIDTH 15 0
BBX 15 23 0 0
BITMAP
1010
0c60
07c0
0380
0100
0000
7ffe
707e
607c
40f8
41f8
01f0
03e0
07e0
07c0
0f80
1f80
1f00
3e02
7e02
7c06
fc0e
fffe
ENDCHAR
STARTCHAR Zabovedot
ENCODING 175
SWIDTH 614 0
DWIDTH 15 0
BBX 15 22 0 0
BITMAP
0180
03c0
03c0
0180
0000
7ffe
707e
607c
40f8
41f8
01f0
03e0
07e0
07c0
0f80
1f80
1f00
3e02
7e02
7c06
fc0e
fffe
ENDCHAR
STARTCHAR degree
ENCODING 176
SWIDTH 396 0
DWIDTH 10 0
BBX 9 9 0 8
BITMAP
1c00
7f00
6300
c180
c180
c180
6300
7f00
1c00
ENDCHAR
STARTCHAR aogonek
ENCODING 177
SWIDTH 544 0
DWIDTH 14 0
BBX 14 18 0 -5
BITMAP
3fc0
fbe0
f1f0
61f0
03f0
07f0
19f0
71f0
f1f0
f1f0
f9f0
fffc
7cf0
0380
0700
0e00
0e40
0780
ENDCHAR
STARTCHAR ogonek
ENCODING 178
SWIDTH 430 0
DWIDTH 11 0
BBX 6 5 2 -5
BITMAP
38
70
e0
e4
78
ENDCHAR
STARTCHAR lstroke
ENCODING 179
SWIDTH 321 0
DWIDTH 8 0
BBX 9 19 -1 0
BITMAP
0e00
fe00
3e00
3e00
3e00
3e00
3e80
3f80
3f00
3e00
3e00
3e00
7e00
fe00
be00
3e00
3e00
3e00
7f00
ENDCHAR
STARTCHAR acute
ENCODING 180
SWIDTH 430 0
DWIDTH 11 0
BBX 6 5 2 14
BITMAP
08
1c
3c
70
c0
ENDCHAR
STARTCHAR lcaron
ENCODING 181
SWIDTH 480 0
DWIDTH 12 0
BBX 12 21 -1 0
BITMAP
0060
00f0
0ef0
fef0
3e60
3e60
3e40
3e80
3e00
3e00
3e00
3e00
3e00
3e00
3e00
3e00
3e00
3e00
3e00
3e00
7f00
ENDCHAR
STARTCHAR sacute
ENCODING 182
SWIDTH 446 0
DWIDTH 11 0
BBX 10 19 0 0
BITMAP
0080
01c0
03c0
0700
0c00
0000
1f80
71c0
f0c0
f840
fe00
7f00
3f80
1fc0
0fc0
87c0
c3c0
e380
7e00
ENDCHAR
STARTCHAR caron
ENCODING 183
SWIDTH 430 0
DWIDTH 10 0
BBX 9 5 0 14
BITMAP
8080
6300
3e00
1c00
0800
ENDCHAR
STARTCHAR cedilla
ENCODING 184
SWIDTH 430 0
DWIDTH 11 0
BBX 5 5 2 -5
BITMAP
20
70
38
38
f0
ENDCHAR
STARTCHAR scaron
ENCODING 185
SWIDTH 446 0
DWIDTH 11 0
BBX 10 19 0 0
BITMAP
8080
6300
3e00
1c00
0800
0000
1f80
71c0
f0c0
f840
fe00
7f00
3f80
1fc0
0fc0
87c0
c3c0
e380
7e00
ENDCHAR
STARTCHAR scedilla
ENCODING 186
SWIDTH 446 0
DWIDTH 11 0
BBX 10 18 0 -5
BITMAP
1f80
71c0
f0c0
f840
fe00
7f00
3f80
1fc0
0fc0
87c0
c3c0
e380
7e00
0800
1c00
0e00
0e00
3c00
ENDCHAR
STARTCHAR tcaron
ENCODING 187
SWIDTH 440 0
DWIDTH 11 0
BBX 11 22 0 0
BITMAP
00c0
01e0
01e0
01e0
00c0
00c0
0c80
1d00
3c00
ff80
7c00
7c00
7c00
7c00
7c00
7c00
7c00
7c00
7c00
7c80
3f80
1f00
ENDCHAR
STARTCHAR zacute
ENCODING 188
SWIDTH 483 0
DWIDTH 12 0
BBX 11 19 0 0
BITMAP
0040
00e0
01e0
0380
0600
0000
ffe0
c3e0
87c0
07c0
0f80
1f00
1f00
3e00
7c00
7c00
f820
f860
ffe0
ENDCHAR
STARTCHAR doubleacute
ENCODING 189
SWIDTH 430 0
DWIDTH 10 0
BBX 8 5 1 14
BITMAP
33
77
66
cc
88
ENDCHAR
STARTCHAR zcaron
ENCODING 190
SWIDTH 483 0
DWIDTH 12 0
BBX 11 19 0 0
BITMAP
4040
3180
1f00
0e00
0400
0000
ffe0
c3e0
87c0
07c0
0f80
1f00
1f00
3e00
7c00
7c00
f820
f860
ffe0
ENDCHAR
STARTCHAR zabovedot
ENCODING 191
SWIDTH 483 0
DWIDTH 12 0
BBX 11 18 0 0
BITMAP
0600
0f00
0f00
0600
0000
ffe0
c3e0
87c0
07c0
0f80
1f00
1f00
3e00
7c00
7c00
f820
f860
ffe0
ENDCHAR
STARTCHAR Racute
ENCODING 192
SWIDTH 684 0
DWIDTH 17 0
BBX 18 23 -1 0
BITMAP
001000
003800
007800
00e000
018000
000000
fff800
3e3e00
3e1f00
3e1f00
3e1f00
3e1f00
3e1e00
3e3c00
3ff000
3ef800
3e7c00
3e7e00
3e3e00
3e3f00
3e3f00
3f1f80
ff8fc0
ENDCHAR
STARTCHAR Aacute
ENCODING 193
SWIDTH 644 0
DWIDTH 16 0
BBX 18 21 -1 0
BITMAP
001000
003800
007800
00e000
018000
000000
01e000
01e000
03f000
03f000
03f000
06f800
06f800
0c7c00
0c7c00
0ffc00
183e00
183e00
301f00
301f00
fc7fc0
ENDCHAR
STARTCHAR Acircumflex
ENCODING 194
SWIDTH 644 0
DWIDTH 16 0
BBX 18 21 -1 0
BITMAP
008000
01c000
03e000
063000
080800
000000
01e000
01e000
03f000
03f000
03f000
06f800
06f800
0c7c00
0c7c00
0ffc00
183e00
183e00
301f00
301f00
fc7fc0
ENDCHAR
STARTCHAR Abreve
ENCODING 195
SWIDTH 644 0
DWIDTH 16 0
BBX 18 22 -1 0
BITMAP
040800
061800
03f000
01e000
000000
01e000
01e000
03f000
03f000
03f000
06f800
06f800
06f800
0c7c00
0c7c00
0ffc00
183e00
183e00
183e00
301f00
301f00
fc7fc0
ENDCHAR
STARTCHAR Adiaeresis
ENCODING 196
SWIDTH 644 0
DWIDTH 16 0
BBX 18 20 -1 0
BITMAP
063000
0f7800
0f7800
063000
000000
01e000
01e000
03f000
03f000
03f000
06f800
06f800
0c7c00
0c7c00
0ffc00
183e00
183e00
301f00
301f00
fc7fc0
ENDCHAR
STARTCHAR Lacute
ENCODING 197
SWIDTH 585 0
DWIDTH 15 0
BBX 15 23 0 0
BITMAP
0080
01c0
03c0
0700
0c00
0000
ff80
3e00
3e00
3e00
3e00
3e00
3e00
3e00
3e00
3e00
3e00
3e00
3e02
3e02
3e06
3f0e
fffe
ENDCHAR
STARTCHAR Cacute
ENCODING 198
SWIDTH 689 0
DWIDTH 17 0
BBX 16 23 0 0
BITMAP
0008
001c
003c
0070
00c0
0000
07fc
1e0f
3c07
7c03
7c01
f801
f800
f800
f800
f800
f800
f801
7c01
7c03
3e07
1f0f
07fc
ENDCHAR
STARTCHAR Ccedilla
ENCODING 199
SWIDTH 689 0
DWIDTH 17 0
BBX 16 22 0 -5
BITMAP
07fc
1e0f
3c07
7c03
7c01
f801
f800
f800
f800
f800
f800
f801
7c01
7c03
3e07
1f0f
07fc
0080
01c0
00e0
00e0
03c0
ENDCHAR
STARTCHAR Ccaron
ENCODING 200
SWIDTH 689 0
DWIDTH 17 0
BBX 16 23 0 0
BITMAP
0808
0630
03e0
01c0
0080
0000
07fc
1e0f
3c07
7c03
7c01
f801
f800
f800
f800
f800
f800
f801
7c01
7c03
3e07
1f0f
07fc
ENDCHAR
STARTCHAR Eacute
ENCODING 201
SWIDTH 629 0
DWIDTH 16 0
BBX 15 21 0 0
BITMAP
0040
00e0
01e0
0380
0600
0000
fffc
3e1c
3e0c
3e04
3e00
3e10
3e30
3ff0
3e30
3e10
3e00
3e02
3e06
3e0e
fffe
ENDCHAR
STARTCHAR Eogonek
ENCODING 202
SWIDTH 629 0
DWIDTH 16 0
BBX 15 22 0 -5
BITMAP
fffc
3e1c
3e0c
3e04
3e00
3e10
3e30
3ff0
3e30
3e10
3e00
3e00
3e02
3e02
3e06
3f0e
fffe
01c0
0380
0700
0720
03c0
ENDCHAR
STARTCHAR Ediaeresis
ENCODING 203
SWIDTH 629 0
DWIDTH 16 0
BBX 15 20 0 0
BITMAP
0c60
1ef0
1ef0
0c60
0000
fffc
3e1c
3e0c
3e04
3e00
3e10
3e30
3ff0
3e30
3e10
3e00
3e02
3e06
3e0e
fffe
ENDCHAR
STARTCHAR Ecaron
ENCODING 204
SWIDTH 629 0
DWIDTH 16 0
BBX 15 23 0 0
BITMAP
2020
18c0
0f80
0700
0200
0000
fffc
3e1c
3e0c
3e04
3e00
3e10
3e30
3ff0
3e30
3e10
3e00
3e00
3e02
3e02
3e06
3f0e
fffe
ENDCHAR
STARTCHAR Iacute
ENCODING 205
SWIDTH 384 0
DWIDTH 10 0
BBX 9 21 0 0
BITMAP
0200
0700
0f00
1c00
3000
0000
ff80
3e00
3e00
3e00
3e00
3e00
3e00
3e00
3e00
3e00
3e00
3e00
3e00
3e00
ff80
ENDCHAR
STARTCHAR Icircumflex
ENCODING 206
SWIDTH 384 0
DWIDTH 10 0
BBX 9 21 0 0
BITMAP
0800
1c00
3e00
6300
8080
0000
ff80
3e00
3e00
3e00
3e00
3e00
3e00
3e00
3e00
3e00
3e00
3e00
3e00
3e00
ff80
ENDCHAR
STARTCHAR Dcaron
ENCODING 207
SWIDTH 777 0
DWIDTH 19 0
BBX 18 23 0 0
BITMAP
101000
0c6000
07c000
038000
010000
000000
fff800
3e1e00
3e0f00
3e0f80
3e0f80
3e07c0
3e07c0
3e07c0
3e07c0
3e07c0
3e07c0
3e07c0
3e0f80
3e0f80
3e0f00
3f1e00
fff800
ENDCHAR
STARTCHAR Dstroke
ENCODING 208
SWIDTH 783 0
DWIDTH 19 0
BBX 18 17 0 0
BITMAP
fff800
3e1e00
3e0f00
3e0f80
3e0f80
3e07c0
3e07c0
ffc7c0
3e07c0
3e07c0
3e07c0
3e07c0
3e0f80
3e0f80
3e0f00
3f1e00
fff800
ENDCHAR
STARTCHAR Nacute
ENCODING 209
SWIDTH 739 0
DWIDTH 19 0
BBX 18 23 0 0
BITMAP
000800
001c00
003c00
007000
00c000
000000
fe0fc0
3f0300
3f8300
3f8300
3fc300
37e300
37e300
33f300
31fb00
31fb00
30ff00
307f00
307f00
303f00
301f00
301f00
fc0f00
ENDCHAR
STARTCHAR Ncaron
ENCODING 210
SWIDTH 739 0
DWIDTH 19 0
BBX 18 23 0 0
BITMAP
080800
063000
03e000
01c000
008000
000000
fe0fc0
3f0300
3f8300
3f8300
3fc300
37e300
37e300
33f300
31fb00
31fb00
30ff00
307f00
307f00
303f00
301f00
301f00
fc0f00
ENDCHAR
STARTCHAR Oacute
ENCODING 211
SWIDTH 768 0
DWIDTH 19 0
BBX 18 21 0 0
BITMAP
002000
007000
00f000
01c000
030000
000000
07f800
1e1e00
3c0f00
7c0f80
7c0f80
f807c0
f807c0
f807c0
f807c0
f807c0
7c0f80
7c0f80
3c0f00
1e1e00
07f800
ENDCHAR
STARTCHAR Ocircumflex
ENCODING 212
SWIDTH 768 0
DWIDTH 19 0
BBX 18 21 0 0
BITMAP
008000
01c000
03e000
063000
080800
000000
07f800
1e1e00
3c0f00
7c0f80
7c0f80
f807c0
f807c0
f807c0
f807c0
f807c0
7c0f80
7c0f80
3c0f00
1e1e00
07f800
ENDCHAR
STARTCHAR Odoubleacute
ENCODING 213
SWIDTH 768 0
DWIDTH 19 0
BBX 18 23 0 0
BITMAP
00cc00
01dc00
019800
033000
022000
000000
07f800
1e1e00
3c0f00
7c0f80
7c0f80
f807c0
f807c0
f807c0
f807c0
f807c0
f807c0
f807c0
7c0f80
7c0f80
3c0f00
1e1e00
07f800
ENDCHAR
STARTCHAR Odiaeresis
ENCODING 214
SWIDTH 768 0
DWIDTH 19 0
BBX 18 20 0 0
BITMAP
063000
0f7800
0f7800
063000
000000
07f800
1e1e00
3c0f00
7c0f80
7c0f80
f807c0
f807c0
f807c0
f807c0
f807c0
7c0f80
7c0f80
3c0f00
1e1e00
07f800
ENDCHAR
STARTCHAR multiply
ENCODING 215
SWIDTH 600 0
DWIDTH 15 0
BBX 11 11 2 1
BITMAP
4040
e0e0
71c0
3b80
1f00
0e00
1f00
3b80
71c0
e0e0
4040
ENDCHAR
STARTCHAR Rcaron
ENCODING 216
SWIDTH 684 0
DWIDTH 17 0
BBX 18 23 -1 0
BITMAP
101000
0c6000
07c000
038000
010000
000000
fff800
3e3e00
3e1f00
3e1f00
3e1f00
3e1f00
3e1e00
3e3c00
3ff000
3ef800
3e7c00
3e7e00
3e3e00
3e3f00
3e3f00
3f1f80
ff8fc0
ENDCHAR
STARTCHAR Uring
ENCODING 217
SWIDTH 786 0
DWIDTH 20 0
BBX 19 23 0 0
BITMAP
00f000
019800
019800
019800
00f000
000000
ffbfe0
3e0f80
3e0f80
3e0f80
3e0f80
3e0f80
3e0f80
3e0f80
3e0f80
3e0f80
3e0f80
3e0f80
3e0f80
3e0f80
1e0f00
0f1e00
03f800
ENDCHAR
STARTCHAR Uacute
ENCODING 218
SWIDTH 786 0
DWIDTH 20 0
BBX 19 21 0 0
BITMAP
001000
003800
007800
00e000
018000
000000
ffbfe0
3e0f80
3e0f80
3e0f80
3e0f80
3e0f80
3e0f80
3e0f80
3e0f80
3e0f80
3e0f80
3e0f80
1e0f00
0f1e00
03f800
ENDCHAR
STARTCHAR Udoubleacute
ENCODING 219
SWIDTH 786 0
DWIDTH 20 0
BBX 19 23 0 0
BITMAP
006600
00ee00
00cc00
019800
011000
000000
ffbfe0
3e0f80
3e0f80
3e0f80
3e0f80
3e0f80
3e0f80
3e0f80
3e0f80
3e0f80
3e0f80
3e0f80
3e0f80
3e0f80
1e0f00
0f1e00
03f800
ENDCHAR
STARTCHAR Udiaeresis
ENCODING 220
SWIDTH 786 0
DWIDTH 20 0
BBX 19 20 0 0
BITMAP
063000
0f7800
0f7800
063000
000000
ffbfe0
3e0f80
3e0f80
3e0f80
3e0f80
3e0f80
3e0f80
3e0f80
3e0f80
3e0f80
3e0f80
3e0f80
1e0f00
0f1e00
03f800
ENDCHAR
STARTCHAR Yacute
ENCODING 221
SWIDTH 617 0
DWIDTH 15 0
BBX 17 21 -1 0
BITMAP
000800
001c00
003c00
007000
00c000
000000
ff9f80
3e0600
3e0600
1f0c00
1f0c00
0f9800
0f9800
07f000
07f000
03e000
03e000
03e000
03e000
03e000
0ff800
ENDCHAR
STARTCHAR Tcedilla
ENCODING 222
SWIDTH 624 0
DWIDTH 16 0
BBX 15 22 0 -5
BITMAP
fffe
e7ce
c7c6
87c2
07c0
07c0
07c0
07c0
07c0
07c0
07c0
07c0
07c0
07c0
07c0
07c0
1ff0
0100
0380
01c0
01c0
0780
ENDCHAR
STARTCHAR ssharp
ENCODING 223
SWIDTH 662 0
DWIDTH 17 0
BBX 17 19 0 0
BITMAP
07f000
1e3c00
3c1e00
7c1e00
7c1e00
7c1c00
7c3800
7c7000
7cf000
7cf800
7cfe00
7cff00
7c7f80
7c1f80
7c0f80
7c8780
7dc780
7de700
fcfc00
ENDCHAR
STARTCHAR racute
ENCODING 224
SWIDTH 440 0
DWIDTH 11 0
BBX 12 19 0 0
BITMAP
0040
00e0
01e0
0380
0600
0000
1ce0
fdf0
7ff0
7ce0
7c00
7c00
7c00
7c00
7c00
7c00
7c00
7c00
fe00
ENDCHAR
STARTCHAR aacute
ENCODING 225
SWIDTH 544 0
DWIDTH 14 0
BBX 14 19 0 0
BITMAP
0080
01c0
03c0
0700
0c00
0000
3fc0
fbe0
f1f0
61f0
03f0
07f0
19f0
71f0
f1f0
f1f0
f9f0
fffc
7cf0
ENDCHAR
STARTCHAR acircumflex
ENCODING 226
SWIDTH 544 0
DWIDTH 14 0
BBX 14 19 0 0
BITMAP
0400
0e00
1f00
3180
4040
0000
3fc0
fbe0
f1f0
61f0
03f0
07f0
19f0
71f0
f1f0
f1f0
f9f0
fffc
7cf0
ENDCHAR
STARTCHAR abreve
ENCODING 227
SWIDTH 544 0
DWIDTH 14 0
BBX 14 18 0 0
BITMAP
2040
30c0
1f80
0f00
0000
3fc0
fbe0
f1f0
61f0
03f0
07f0
19f0
71f0
f1f0
f1f0
f9f0
fffc
7cf0
ENDCHAR
STARTCHAR adiaeresis
ENCODING 228
SWIDTH 544 0
DWIDTH 14 0
BBX 14 18 0 0
BITMAP
18c0
3de0
3de0
18c0
0000
3fc0
fbe0
f1f0
61f0
03f0
07f0
19f0
71f0
f1f0
f1f0
f9f0
fffc
7cf0
ENDCHAR
STARTCHAR lacute
ENCODING 229
SWIDTH 309 0
DWIDTH 8 0
BBX 9 25 -1 0
BITMAP
0100
0380
0780
0e00
1800
0000
0e00
fe00
3e00
3e00
3e00
3e00
3e00
3e00
3e00
3e00
3e00
3e00
3e00
3e00
3e00
3e00
3e00
3e00
7f00
ENDCHAR
STARTCHAR cacute
ENCODING 230
SWIDTH 494 0
DWIDTH 13 0
BBX 12 19 0 0
BITMAP
0020
0070
00f0
01c0
0300
0000
1fc0
7cf0
7cf0
f860
f800
f800
f800
f800
f800
f800
7c10
7c70
1fc0
ENDCHAR
STARTCHAR ccedilla
ENCODING 231
SWIDTH 494 0
DWIDTH 13 0
BBX 12 18 0 -5
BITMAP
1fc0
7cf0
7cf0
f860
f800
f800
f800
f800
f800
f800
7c10
7c70
1fc0
0200
0700
0380
0380
0f00
ENDCHAR
STARTCHAR ccaron
ENCODING 232
SWIDTH 494 0
DWIDTH 13 0
BBX 12 19 0 0
BITMAP
2020
18c0
0f80
0700
0200
0000
1fc0
7cf0
7cf0
f860
f800
f800
f800
f800
f800
f800
7c10
7c70
1fc0
ENDCHAR
STARTCHAR eacute
ENCODING 233
SWIDTH 519 0
DWIDTH 13 0
BBX 12 19 0 0
BITMAP
0080
01c0
03c0
0700
0c00
0000
1fc0
7de0
7cf0
f8f0
fff0
f800
f800
f800
f800
f800
7c10
7c70
1fc0
ENDCHAR
STARTCHAR eogonek
ENCODING 234
SWIDTH 519 0
DWIDTH 13 0
BBX 12 18 0 -5
BITMAP
1fc0
7de0
7cf0
f8f0
fff0
f800
f800
f800
f800
f800
7c10
7c70
1fc0
0700
0e00
1c00
1c80
0f00
ENDCHAR
STARTCHAR ediaeresis
ENCODING 235
SWIDTH 519 0
DWIDTH 13 0
BBX 12 18 0 0
BITMAP
18c0
3de0
3de0
18c0
0000
1fc0
7de0
7cf0
f8f0
fff0
f800
f800
f800
f800
f800
7c10
7c70
1fc0
ENDCHAR
STARTCHAR ecaron
ENCODING 236
SWIDTH 519 0
DWIDTH 13 0
BBX 12 19 0 0
BITMAP
2020
18c0
0f80
0700
0200
0000
1fc0
7de0
7cf0
f8f0
fff0
f800
f800
f800
f800
f800
7c10
7c70
1fc0
ENDCHAR
STARTCHAR iacute
ENCODING 237
SWIDTH 316 0
DWIDTH 8 0
BBX 7 19 0 0
BITMAP
04
0e
1e
38
60
00
1c
fc
7c
7c
7c
7c
7c
7c
7c
7c
7c
7c
fe
ENDCHAR
STARTCHAR icircumflex
ENCODING 238
SWIDTH 316 0
DWIDTH 8 0
BBX 9 19 -1 0
BITMAP
0800
1c00
3e00
6300
8080
0000
0e00
7e00
3e00
3e00
3e00
3e00
3e00
3e00
3e00
3e00
3e00
3e00
7f00
ENDCHAR
STARTCHAR dcaron
ENCODING 239
SWIDTH 760 0
DWIDTH 19 0
BBX 19 21 0 0
BITMAP
0000c0
0001e0
001de0
01fde0
007cc0
007cc0
007c80
007d00
1ffc00
7cfc00
7c7c00
f87c00
f87c00
f87c00
f87c00
f87c00
f87c00
f87c00
7c7c00
7cfc00
1f3e00
ENDCHAR
STARTCHAR dstroke
ENCODING 240
SWIDTH 760 0
DWIDTH 19 0
BBX 19 19 0 0
BITMAP
001c00
01fc00
007c00
0fffe0
0fffe0
007c00
1ffc00
7cfc00
7c7c00
f87c00
f87c00
f87c00
f87c00
f87c00
f87c00
f87c00
7c7c00
7cfc00
1f3e00
ENDCHAR
STARTCHAR nacute
ENCODING 241
SWIDTH 638 0
DWIDTH 16 0
BBX 15 19 0 0
BITMAP
0020
0070
00f0
01c0
0300
0000
1cf0
fdf8
7e7c
7c7c
7c7c
7c7c
7c7c
7c7c
7c7c
7c7c
7c7c
7c7c
fe7e
ENDCHAR
STARTCHAR ncaron
ENCODING 242
SWIDTH 638 0
DWIDTH 16 0
BBX 15 19 0 0
BITMAP
2020
18c0
0f80
0700
0200
0000
1cf0
fdf8
7e7c
7c7c
7c7c
7c7c
7c7c
7c7c
7c7c
7c7c
7c7c
7c7c
fe7e
ENDCHAR
STARTCHAR oacute
ENCODING 243
SWIDTH 585 0
DWIDTH 15 0
BBX 14 19 0 0
BITMAP
0040
00e0
01e0
0380
0600
0000
1fe0
7cf8
7cf8
f87c
f87c
f87c
f87c
f87c
f87c
f87c
7cf8
7cf8
1fe0
ENDCHAR
STARTCHAR ocircumflex
ENCODING 244
SWIDTH 585 0
DWIDTH 15 0
BBX 14 19 0 0
BITMAP
0200
0700
0f80
18c0
2020
0000
1fe0
7cf8
7cf8
f87c
f87c
f87c
f87c
f87c
f87c
f87c
7cf8
7cf8
1fe0
ENDCHAR
STARTCHAR odoubleacute
ENCODING 245
SWIDTH 585 0
DWIDTH 15 0
BBX 14 19 0 0
BITMAP
0330
0770
0660
0cc0
0880
0000
1fe0
7cf8
7cf8
f87c
f87c
f87c
f87c
f87c
f87c
f87c
7cf8
7cf8
1fe0
ENDCHAR
STARTCHAR odiaeresis
ENCODING 246
SWIDTH 585 0
DWIDTH 15 0
BBX 14 18 0 0
BITMAP
18c0
3de0
3de0
18c0
0000
1fe0
7cf8
7cf8
f87c
f87c
f87c
f87c
f87c
f87c
f87c
7cf8
7cf8
1fe0
ENDCHAR
STARTCHAR division
ENCODING 247
SWIDTH 600 0
DWIDTH 15 0
BBX 12 12 1 0
BITMAP
0600
0f00
0600
0000
0000
fff0
fff0
0000
0000
0600
0f00
0600
ENDCHAR
STARTCHAR rcaron
ENCODING 248
SWIDTH 440 0
DWIDTH 11 0
BBX 12 19 0 0
BITMAP
4040
3180
1f00
0e00
0400
0000
1ce0
fdf0
7ff0
7ce0
7c00
7c00
7c00
7c00
7c00
7c00
7c00
7c00
fe00
ENDCHAR
STARTCHAR uring
ENCODING 249
SWIDTH 629 0
DWIDTH 16 0
BBX 15 19 0 0
BITMAP
0780
0cc0
0cc0
0cc0
0780
0000
1c1c
fcfc
7c7c
7c7c
7c7c
7c7c
7c7c
7c7c
7c7c
7c7c
7cfc
3f7c
1e7e
ENDCHAR
STARTCHAR uacute
ENCODING 250
SWIDTH 629 0
DWIDTH 16 0
BBX 15 19 0 0
BITMAP
0040
00e0
01e0
0380
0600
0000
1c1c
fcfc
7c7c
7c7c
7c7c
7c7c
7c7c
7c7c
7c7c
7c7c
7cfc
3f7c
1e7e
ENDCHAR
STARTCHAR udoubleacute
ENCODING 251
SWIDTH 629 0
DWIDTH 16 0
BBX 15 19 0 0
BITMAP
0330
0770
0660
0cc0
0880
0000
1c1c
fcfc
7c7c
7c7c
7c7c
7c7c
7c7c
7c7c
7c7c
7c7c
7cfc
3f7c
1e7e
ENDCHAR
STARTCHAR udiaeresis
ENCODING 252
SWIDTH 629 0
DWIDTH 16 0
BBX 15 18 0 0
BITMAP
0c60
1ef0
1ef0
0c60
0000
1c1c
fcfc
7c7c
7c7c
7c7c
7c7c
7c7c
7c7c
7c7c
7c7c
7cfc
3f7c
1e7e
ENDCHAR
STARTCHAR yacute
ENCODING 253
SWIDTH 524 0
DWIDTH 13 0
BBX 14 24 -1 -5
BITMAP
0020
0070
00f0
01c0
0300
0000
fe3c
7c18
7c10
3e30
3e20
3e20
1f60
1f40
1f40
0fc0
0f80
0f80
0780
0700
6700
f600
f400
7800
ENDCHAR
STARTCHAR tcedilla
ENCODING 254
SWIDTH 370 0
DWIDTH 9 0
BBX 9 21 0 -5
BITMAP
0c00
1c00
3c00
ff80
7c00
7c00
7c00
7c00
7c00
7c00
7c00
7c00
7c00
7c80
3f80
1f00
0800
1c00
0e00
0e00
3c00
ENDCHAR
STARTCHAR abovedot
ENCODING 255
SWIDTH 430 0
DWIDTH 10 0
BBX 4 4 3 14
BITMAP
60
f0
f0
60
ENDCHAR
ENDFONT
